<svg width="24" height="24" viewBox="0 0 24 24" fill="none" xmlns="http://www.w3.org/2000/svg">
<path d="M11.5 3.44625C9.19331 3.44625 8.90325 3.45687 7.99694 3.49725C7.09063 3.53975 6.47331 3.68212 5.9325 3.8925C5.36522 4.10587 4.8514 4.44057 4.42694 4.87319C3.99458 5.29786 3.65993 5.81163 3.44625 6.37875C3.23587 6.9185 3.09244 7.53687 3.051 8.44C3.01063 9.34844 3 9.63744 3 11.9473C3 14.2551 3.01063 14.5441 3.051 15.4504C3.0935 16.3556 3.23587 16.9729 3.44625 17.5138C3.66406 18.0726 3.95413 18.5465 4.42694 19.0193C4.89869 19.4921 5.37256 19.7833 5.93144 20C6.47331 20.2104 7.08956 20.3538 7.99481 20.3953C8.90219 20.4356 9.19119 20.4463 11.5 20.4463C13.8088 20.4463 14.0968 20.4356 15.0041 20.3953C15.9083 20.3528 16.5278 20.2104 17.0686 20C17.6355 19.7865 18.1489 19.4518 18.5731 19.0193C19.0459 18.5465 19.3359 18.0726 19.5537 17.5138C19.7631 16.9729 19.9065 16.3556 19.949 15.4504C19.9894 14.5441 20 14.2551 20 11.9462C20 9.63744 19.9894 9.34844 19.949 8.44106C19.9065 7.53688 19.7631 6.9185 19.5537 6.37875C19.3401 5.81161 19.0054 5.29784 18.5731 4.87319C18.1487 4.44041 17.6349 4.10569 17.0675 3.8925C16.5256 3.68212 15.9072 3.53869 15.0031 3.49725C14.0957 3.45687 13.8078 3.44625 11.4979 3.44625H11.5011H11.5ZM10.7382 4.97837H11.5011C13.7706 4.97837 14.0394 4.98581 14.9351 5.02725C15.7638 5.06444 16.2143 5.20363 16.5139 5.31944C16.9102 5.4735 17.1939 5.65837 17.4914 5.95587C17.7889 6.25337 17.9728 6.536 18.1268 6.93338C18.2437 7.23194 18.3818 7.68244 18.419 8.51119C18.4604 9.40688 18.4689 9.67569 18.4689 11.9441C18.4689 14.2126 18.4604 14.4824 18.419 15.3781C18.3818 16.2069 18.2426 16.6563 18.1268 16.9559C17.9905 17.325 17.773 17.6587 17.4904 17.9324C17.1929 18.2299 16.9103 18.4137 16.5129 18.5677C16.2154 18.6846 15.7649 18.8228 14.9351 18.861C14.0394 18.9014 13.7706 18.9109 11.5011 18.9109C9.23156 18.9109 8.96169 18.9014 8.066 18.861C7.23725 18.8228 6.78781 18.6846 6.48819 18.5677C6.11897 18.4317 5.78495 18.2146 5.51069 17.9324C5.2278 17.6583 5.00996 17.3243 4.87319 16.9549C4.75738 16.6563 4.61819 16.2058 4.581 15.3771C4.54063 14.4814 4.53212 14.2126 4.53212 11.942C4.53212 9.6725 4.54063 9.40475 4.581 8.50906C4.61925 7.68031 4.75738 7.22981 4.87425 6.93019C5.02831 6.53387 5.21319 6.25019 5.51069 5.95269C5.80819 5.65519 6.09081 5.47137 6.48819 5.31731C6.78781 5.20044 7.23725 5.06231 8.066 5.02406C8.85012 4.98794 9.154 4.97731 10.7382 4.97625V4.97837ZM16.0379 6.38937C15.904 6.38937 15.7714 6.41576 15.6476 6.46702C15.5238 6.51828 15.4114 6.59341 15.3167 6.68813C15.222 6.78284 15.1468 6.89529 15.0956 7.01904C15.0443 7.14279 15.0179 7.27543 15.0179 7.40937C15.0179 7.54332 15.0443 7.67596 15.0956 7.79971C15.1468 7.92346 15.222 8.03591 15.3167 8.13062C15.4114 8.22534 15.5238 8.30047 15.6476 8.35173C15.7714 8.40299 15.904 8.42938 16.0379 8.42938C16.3085 8.42938 16.5679 8.32191 16.7592 8.13062C16.9505 7.93934 17.0579 7.6799 17.0579 7.40937C17.0579 7.13885 16.9505 6.87941 16.7592 6.68813C16.5679 6.49684 16.3085 6.38937 16.0379 6.38937ZM11.5011 7.5815C10.9221 7.57247 10.3471 7.6787 9.80954 7.89402C9.272 8.10935 8.78267 8.42945 8.37004 8.8357C7.9574 9.24195 7.6297 9.72623 7.40602 10.2603C7.18234 10.7945 7.06714 11.3677 7.06714 11.9468C7.06714 12.5258 7.18234 13.0991 7.40602 13.6332C7.6297 14.1673 7.9574 14.6516 8.37004 15.0579C8.78267 15.4641 9.272 15.7842 9.80954 15.9995C10.3471 16.2149 10.9221 16.3211 11.5011 16.3121C12.647 16.2942 13.74 15.8264 14.544 15.0097C15.3481 14.193 15.7988 13.0929 15.7988 11.9468C15.7988 10.8007 15.3481 9.70056 14.544 8.88386C13.74 8.06715 12.647 7.59938 11.5011 7.5815ZM11.5011 9.11256C12.2526 9.11256 12.9734 9.41111 13.5048 9.94253C14.0362 10.4739 14.3348 11.1947 14.3348 11.9462C14.3348 12.6978 14.0362 13.4185 13.5048 13.95C12.9734 14.4814 12.2526 14.7799 11.5011 14.7799C10.7495 14.7799 10.0288 14.4814 9.49734 13.95C8.96592 13.4185 8.66738 12.6978 8.66738 11.9462C8.66738 11.1947 8.96592 10.4739 9.49734 9.94253C10.0288 9.41111 10.7495 9.11256 11.5011 9.11256Z" fill="#FBD3A9"/>
</svg>
