<svg width="24" height="24" viewBox="0 0 24 24" fill="none" xmlns="http://www.w3.org/2000/svg">
<path d="M11.4118 20C6 16.5 2 13.5 2 9.17647C2 6.26824 4.27765 4 7.17647 4C8.81412 4 10.3859 5.15765 11.4118 6.35294C12.4376 5.15765 14.0094 4 15.6471 4C18.5459 4 20.8235 6.26824 20.8235 9.17647C20.5 14 17 16.5 11.4118 20Z" fill="#FDC0B7"/>
<circle r="1.24819" transform="matrix(-0.999329 -0.0366314 -0.0366314 0.999329 8.29872 12.5835)" fill="#F9A8A3"/>
<path d="M14.2565 11.5099C14.2312 12.1988 14.7692 12.7777 15.4581 12.803C16.147 12.8282 16.7259 12.2902 16.7512 11.6014C16.7764 10.9125 16.2384 10.3335 15.5495 10.3083C14.8606 10.283 14.2817 10.821 14.2565 11.5099Z" fill="#F9A8A3"/>
<path d="M10.7704 13.2987C10.7704 13.2987 11.5257 13.98 12.3424 13.8433C13.1591 13.7065 13.4353 12.697 13.4353 12.697" stroke="#F9A8A3" stroke-width="0.99855"/>
</svg>
