<svg width="24" height="24" viewBox="0 0 24 24" fill="none" xmlns="http://www.w3.org/2000/svg">
<path d="M19 3C20.1 3 21 3.85 21 4.88889V18.1111C21 19.15 20.1 20 19 20H5C3.9 20 3 19.15 3 18.1111V4.88889C3 3.85 3.9 3 5 3H19ZM18.5 17.6389V12.6333C18.5 10.9333 17.04 9.55444 15.24 9.55444C14.39 9.55444 13.4 10.0456 12.92 10.7822V9.73389H10.13V17.6389H12.92V12.9828C12.92 12.2556 13.54 11.6606 14.31 11.6606C15.08 11.6606 15.71 12.2556 15.71 12.9828V17.6389H18.5ZM6.88 8.25111C7.81 8.25111 8.56 7.54278 8.56 6.66444C8.56 5.78611 7.81 5.06833 6.88 5.06833C5.95 5.06833 5.19 5.78611 5.19 6.66444C5.19 7.54278 5.95 8.25111 6.88 8.25111ZM8.27 17.6389V9.73389H5.5V17.6389H8.27Z" fill="#B9E1FF"/>
</svg>
